<svg width="24" height="24" viewBox="0 0 24 24" fill="none" xmlns="http://www.w3.org/2000/svg">
  <path fill-rule="evenodd" clip-rule="evenodd" d="M3 3C3 2.44772 3.44772 2 4 2H20C20.5523 2 21 2.44772 21 3V21C21 21.5523 20.5523 22 20 22H4C3.44772 22 3 21.5523 3 21V3ZM4 4V20H20V4H4Z" fill="#1877F2"/>
  <path d="M12 7C11.4477 7 11 7.44772 11 8V12.5858L8.70711 10.2929C8.31658 9.90237 7.68342 9.90237 7.29289 10.2929C6.90237 10.6834 6.90237 11.3166 7.29289 11.7071L12.2929 16.7071C12.6834 17.0976 13.3166 17.0976 13.7071 16.7071L18.7071 11.7071C19.0976 11.3166 19.0976 10.6834 18.7071 10.2929C18.3166 9.90237 17.6834 9.90237 17.2929 10.2929L15 12.5858V8C15 7.44772 14.5523 7 14 7H12Z" fill="#1877F2"/>
</svg>
