<svg xmlns="http://www.w3.org/2000/svg" width="24" height="24" viewBox="0 0 24 24" fill="none">
  <path fill="#1877F2" d="M18.2143 0.372558C18.6135 0.224289 19.0568 0.36396 19.3159 0.675262L22.6156 4.02456C22.8997 4.37573 23.035 4.8329 22.971 5.28016C22.9069 5.72742 22.6524 6.10736 22.2857 6.31396L17.3571 9.06926V21.7246C17.3571 22.2176 16.9747 22.618 16.4929 22.618H14.6491C14.5679 22.618 14.4882 22.6108 14.4093 22.5966C14.1449 22.545 13.9216 22.3153 13.9216 22.041V17.1875H10.0357V22.041C10.0357 22.3153 9.8125 22.545 9.54817 22.5966C9.46929 22.6108 9.38955 22.618 9.30837 22.618H7.46451C6.98272 22.618 6.60034 22.2176 6.60034 21.7246V9.06926L1.67175 6.31396C1.30505 6.10736 1.05052 5.72742 0.986428 5.28016C0.922334 4.8329 1.05765 4.37573 1.34167 4.02456L4.64134 0.675262C4.90045 0.36396 5.3438 0.224289 5.74294 0.372558L12 2.67402L18.2143 0.372558Z"/>
</svg>