<svg width="100" height="100" viewBox="0 0 24 24" fill="none" xmlns="http://www.w3.org/2000/svg">
  <rect width="24" height="24" rx="3" ry="3" fill="#F0F0F0"/>
  <path d="M7 4H17C17.55 4 18 4.45 18 5V19C18 19.55 17.55 20 17 20H7C6.45 20 6 19.55 6 19V5C6 4.45 6.45 4 7 4Z" fill="#FFF" stroke="#000" stroke-width="1"/>
  <path d="M9 8H15V9.5H9V8Z" fill="#000"/>
  <path d="M9 11H15V12.5H9V11Z" fill="#000"/>
  <path d="M9 14H13V15.5H9V14Z" fill="#000"/>
  <path d="M15.5 3.5H8.5C8.22386 3.5 8 3.72386 8 4V5H16V4C16 3.72386 15.7761 3.5 15.5 3.5Z" fill="#FFF" stroke="#000" stroke-width="1"/>
</svg>
