<svg width="24" height="24" viewBox="0 0 24 24" fill="none" xmlns="http://www.w3.org/2000/svg">
  <path d="M20.9603 6.0506C20.9106 7.03855 19.9709 7.40975 19.242 6.741C18.9106 6.4369 18.5138 6.06255 18.0418 5.60285C16.9756 6.5731 15.322 8.08585 13.3506 9.91645C12.8329 10.3972 11.992 10.3435 11.5397 9.8007L11.5394 9.8003C10.6518 8.73835 9.75755 7.6807 8.8322 6.6514C7.7509 7.4453 5.81 8.95825 3.88389 10.8844C3.39573 11.3725 2.60427 11.3725 2.11612 10.8844C1.62796 10.3962 1.62796 9.60475 2.11612 9.1166C4.00573 7.227 6.079 5.4545 8.30255 3.96314L8.306 3.96082C8.30685 3.96027 8.3066 3.96042 8.3066 3.96042C8.8024 3.6299 9.46255 3.69527 9.8839 4.1166C10.8519 5.08455 11.7265 6.14925 12.6118 7.19265C14.1169 5.80065 15.3848 4.64087 16.274 3.8314C15.8705 3.41506 15.5362 3.06006 15.26 2.75898C14.591 2.02997 14.9624 1.08998 15.9506 1.04025C17.2115 0.976795 18.5055 0.939456 19.7511 1.17232C20.3119 1.27718 20.7233 1.68863 20.8281 2.24948C21.061 3.49521 21.0238 4.78949 20.9603 6.0506Z" fill="#1877F2"/>
</svg>
