<svg xmlns="http://www.w3.org/2000/svg" viewBox="0 0 24 24" width="24" height="24">
  <path d="M20.7 12.8l1.4 1.4c.4.4.4 1 0 1.4l-8.2 8.2c-.4.4-1 .4-1.4 0l-5-5c-.4-.4-.4-1 0-1.4l1.4-1.4c.4-.4 1-.4 1.4 0l2.6 2.6 6.8-6.8c.4-.4 1-.4 1.4 0zM15 1c-.6 0-1 .4-1 1v2.6l-1.3-1.3c-.4-.4-1-.4-1.4 0s-.4 1 0 1.4l2 2c.2.2.4.3.7.3s.5-.1.7-.3l6-6c.4-.4.4-1 0-1.4l-1.4-1.4h2.6c.6 0 1 .4 1 1v6c0 .6-.4 1-1 1h-6c-.6 0-1-.4-1-1s.4-1 1-1h4.6L12 7.3 9.4 9.9c-.4.4-1 .4-1.4 0l-2-2c-.4-.4-1-.4-1.4 0s-.4 1 0 1.4l1.4 1.4-1.6 1.6c-.4.4-.4 1 0 1.4l5 5c.4.4 1 .4 1.4 0l2.2-2.2 1.5 1.5c-.7.8-1.2 1.8-1.5 2.9H3c-.6 0-1 .4-1 1s.4 1 1 1h7c.3 1.1.8 2.1 1.5 2.9l-1.5 1.5-2.2-2.2c-.4-.4-1-.4-1.4 0l-5 5c-.4.4-.4 1 0 1.4l1.4 1.4c.4.4 1 .4 1.4 0l2.2-2.2 8.4 8.4c.1.1.2.2.4.2s.3-.1.4-.2l8.2-8.2c.4-.4 1-.4 1.4 0s.4 1 0 1.4L16.4 22c-.4.4-1 .4-1.4 0l-1.4-1.4c-.4-.4-.4-1 0-1.4l8.2-8.2c.4-.4.4-1 0-1.4l-1.4-1.4h2.6c.6 0 1-.4 1-1s-.4-1-1-1h-3c.3-1 .5-2 .5-3s-.2-2-.5-3h3c.6 0 1-.4 1-1s-.4-1-1-1z"/>
</svg>
